<svg xmlns="http://www.w3.org/2000/svg" viewBox="0 0 64 64" fill="none">
  <!-- Eraldia favicon: "e" itálica con gradiente (trazado, sin dependencia de fuentes) -->
  <defs>
    <linearGradient id="fav-e" x1="17.34" y1="13.00" x2="46.66" y2="51.00" gradientUnits="userSpaceOnUse">
      <stop offset="0%" stop-color="#CD6043"/>
      <stop offset="100%" stop-color="#E6AE3E"/>
    </linearGradient>
  </defs>
  <rect x="0" y="0" width="64" height="64" rx="14" fill="#15120E"/>
  <path d="M20.55633360265733 32.27659574468085Q20.55633360265733 32.27659574468085 22.34356764521052 31.57446808510638Q24.13080168776371 30.87234042553191 26.87548253882754 29.787234042553187Q29.62016338989137 28.702127659574465 32.535057006912645 27.5531914893617Q35.44995062393392 26.404255319148934 37.8116527515935 25.489361702127656Q40.17335487925307 24.57446808510638 41.15207828350839 24.191489361702125L40.59888679414669 24.82978723404255Q40.85420594308286 24.31914893617021 41.003142113295624 23.42553191489361Q41.15207828350839 22.531914893617017 41.15207828350839 21.042553191489358Q41.15207828350839 17.85106382978723 40.003142113295624 15.702127659574465Q38.85420594308286 13.553191489361701 36.98186551755094 13.553191489361701Q34.76909956010414 13.553191489361701 32.57761019840201 15.085106382978722Q30.38612083669988 16.617021276595743 28.428674028189242 19.468085106382976Q26.471227219678603 22.31914893617021 25.003142113295624 26.31914893617021Q23.53505700691265 30.31914893617021 22.8116527515935 35.25531914893617Q21.87548253882754 41.80851063829787 23.981865517550943 45.27659574468085Q26.08824849627435 48.744680851063826 30.215908070742437 48.744680851063826Q32.8116527515935 48.744680851063826 35.15207828350839 47.617021276595736Q37.492503815423284 46.48936170212765 39.42867402818924 44.191489361702125Q41.3648442409552 41.89361702127659 42.8116527515935 38.31914893617021Q42.89675913457222 38.1063829787234 42.98186551755094 38.0Q43.066971900529666 37.89361702127659 43.23718466648711 37.89361702127659Q43.32229104946584 37.89361702127659 43.3648442409552 38.06382978723404Q43.40739743244456 38.234042553191486 43.32229104946584 38.48936170212765Q41.9180357303169 42.40425531914893 39.59888679414669 45.212765957446805Q37.27973785797648 48.02127659574467 34.15207828350839 49.51063829787233Q31.024418709040305 50.99999999999999 27.15207828350839 50.99999999999999Q23.705269772870096 50.99999999999999 21.32229104946584 49.27659574468085Q18.939312326061582 47.553191489361694 17.939312326061582 44.12765957446808Q16.939312326061582 40.702127659574465 17.62016338989137 35.680851063829785Q18.215908070742437 31.08510638297872 20.109525092019034 26.978723404255312Q22.003142113295628 22.87234042553191 24.747822964359457 19.723404255319146Q27.492503815423284 16.574468085106382 30.726546368614773 14.787234042553187Q33.96058892180626 12.999999999999993 37.32229104946584 12.999999999999993Q39.83292934733818 12.999999999999993 41.55633360265733 14.234042553191482Q43.27973785797648 15.468085106382972 44.15207828350839 17.468085106382972Q45.024418709040305 19.468085106382976 44.98186551755094 21.808510638297868Q44.98186551755094 22.276595744680847 45.2584612622318 22.44680851063829Q45.53505700691265 22.61702127659574 46.13080168776371 22.489361702127656Q46.34356764521052 22.404255319148934 46.47122721967861 22.468085106382976Q46.59888679414669 22.531914893617017 46.641439985636055 22.659574468085104Q46.683993177125416 22.82978723404255 46.59888679414669 22.91489361702127Q46.51378041116797 22.999999999999996 46.34356764521052 23.08510638297872Q46.003142113295624 23.212765957446805 43.98186551755094 23.978723404255316Q41.96058892180626 24.744680851063826 39.066971900529666 25.85106382978723Q36.17335487925307 26.957446808510635 32.98186551755094 28.170212765957444Q29.79037615584882 29.38297872340425 26.981865517550947 30.468085106382972Q24.173354879253075 31.553191489361698 22.40739743244456 32.234042553191486Q20.64143998563605 32.91489361702128 20.64143998563605 32.91489361702128Z" fill="url(#fav-e)"/>
</svg>
