<svg width="1200" height="720" viewBox="0 0 1200 720" fill="none" xmlns="http://www.w3.org/2000/svg" role="img" aria-labelledby="title desc">
  <title id="title">AI sales operations dashboard illustration</title>
  <desc id="desc">Abstract dashboard with wave analytics and highlighted metrics.</desc>
  <rect width="1200" height="720" rx="36" fill="#F4F7FF"/>
  <rect x="80" y="90" width="1040" height="540" rx="28" fill="white" stroke="#E1E7F5"/>
  <rect x="130" y="140" width="320" height="180" rx="20" fill="#0057FF" fill-opacity="0.08"/>
  <rect x="130" y="350" width="320" height="180" rx="20" fill="#00C9A7" fill-opacity="0.12"/>
  <rect x="480" y="140" width="590" height="390" rx="24" fill="#0B1B3F" fill-opacity="0.05"/>
  <path d="M520 430 C600 330 680 460 760 380 C840 300 920 430 1020 320" stroke="#0057FF" stroke-width="6" stroke-linecap="round"/>
  <path d="M520 460 C600 370 690 480 770 410 C860 340 960 430 1040 350" stroke="#00C9A7" stroke-width="4" stroke-linecap="round"/>
  <circle cx="840" cy="280" r="54" fill="#0057FF" fill-opacity="0.12"/>
  <circle cx="840" cy="280" r="34" fill="#0057FF" fill-opacity="0.2"/>
  <circle cx="840" cy="280" r="16" fill="#0057FF"/>
  <rect x="530" y="190" width="180" height="12" rx="6" fill="#0B1B3F" fill-opacity="0.4"/>
  <rect x="530" y="220" width="260" height="10" rx="5" fill="#0B1B3F" fill-opacity="0.2"/>
  <rect x="530" y="520" width="340" height="12" rx="6" fill="#0B1B3F" fill-opacity="0.2"/>
  <rect x="530" y="545" width="260" height="10" rx="5" fill="#0B1B3F" fill-opacity="0.15"/>
</svg>
