<svg width="1200" height="620" viewBox="0 0 1200 620" fill="none" xmlns="http://www.w3.org/2000/svg" role="img" aria-labelledby="title desc">
  <title id="title">Team alignment and delivery roadmap</title>
  <desc id="desc">Abstract team nodes connected across a delivery timeline.</desc>
  <rect width="1200" height="620" rx="32" fill="#F5F8FF"/>
  <rect x="90" y="110" width="1020" height="400" rx="28" fill="white" stroke="#E1E7F5"/>
  <rect x="160" y="200" width="220" height="220" rx="24" fill="#0057FF" fill-opacity="0.08"/>
  <rect x="420" y="200" width="220" height="220" rx="24" fill="#00C9A7" fill-opacity="0.12"/>
  <rect x="680" y="200" width="220" height="220" rx="24" fill="#0057FF" fill-opacity="0.08"/>
  <rect x="940" y="200" width="120" height="220" rx="24" fill="#0B1B3F" fill-opacity="0.05"/>
  <path d="M270 310 L430 310" stroke="#0057FF" stroke-width="4" stroke-linecap="round"/>
  <path d="M530 310 L690 310" stroke="#00C9A7" stroke-width="4" stroke-linecap="round"/>
  <path d="M790 310 L940 310" stroke="#0057FF" stroke-width="4" stroke-linecap="round"/>
  <circle cx="270" cy="310" r="18" fill="#0057FF"/>
  <circle cx="530" cy="310" r="18" fill="#00C9A7"/>
  <circle cx="790" cy="310" r="18" fill="#0057FF"/>
  <rect x="170" y="150" width="200" height="14" rx="7" fill="#0B1B3F" fill-opacity="0.3"/>
  <rect x="430" y="150" width="200" height="14" rx="7" fill="#0B1B3F" fill-opacity="0.3"/>
  <rect x="690" y="150" width="200" height="14" rx="7" fill="#0B1B3F" fill-opacity="0.3"/>
</svg>
