<svg width="1200" height="520" viewBox="0 0 1200 520" fill="none" xmlns="http://www.w3.org/2000/svg" role="img" aria-labelledby="title desc">
  <title id="title">Service pillars collage</title>
  <desc id="desc">Three cards representing prospecting, pipeline intelligence, and automation.</desc>
  <rect width="1200" height="520" rx="32" fill="#F8FAFF"/>
  <rect x="80" y="80" width="320" height="360" rx="24" fill="white" stroke="#E1E7F5"/>
  <rect x="440" y="80" width="320" height="360" rx="24" fill="white" stroke="#E1E7F5"/>
  <rect x="800" y="80" width="320" height="360" rx="24" fill="white" stroke="#E1E7F5"/>
  <circle cx="180" cy="170" r="44" fill="#0057FF" fill-opacity="0.12"/>
  <circle cx="540" cy="170" r="44" fill="#00C9A7" fill-opacity="0.12"/>
  <circle cx="900" cy="170" r="44" fill="#0057FF" fill-opacity="0.12"/>
  <path d="M160 170 L200 170" stroke="#0057FF" stroke-width="6" stroke-linecap="round"/>
  <path d="M520 190 L560 150" stroke="#00C9A7" stroke-width="6" stroke-linecap="round"/>
  <path d="M880 150 L920 190" stroke="#0057FF" stroke-width="6" stroke-linecap="round"/>
  <rect x="120" y="250" width="200" height="12" rx="6" fill="#0B1B3F" fill-opacity="0.25"/>
  <rect x="480" y="250" width="200" height="12" rx="6" fill="#0B1B3F" fill-opacity="0.25"/>
  <rect x="840" y="250" width="200" height="12" rx="6" fill="#0B1B3F" fill-opacity="0.25"/>
  <rect x="120" y="280" width="180" height="10" rx="5" fill="#0B1B3F" fill-opacity="0.15"/>
  <rect x="480" y="280" width="180" height="10" rx="5" fill="#0B1B3F" fill-opacity="0.15"/>
  <rect x="840" y="280" width="180" height="10" rx="5" fill="#0B1B3F" fill-opacity="0.15"/>
</svg>
